<?xml version="1.0" standalone="no"?>
<!DOCTYPE svg PUBLIC "-//W3C//DTD SVG 20010904//EN"
 "http://www.w3.org/TR/2001/REC-SVG-20010904/DTD/svg10.dtd">
<svg version="1.0" xmlns="http://www.w3.org/2000/svg"
 width="512.000000pt" height="512.000000pt" viewBox="0 0 512.000000 512.000000"
 preserveAspectRatio="xMidYMid meet">
<metadata>
Created by potrace 1.14, written by Peter Selinger 2001-2017
</metadata>
<g transform="translate(0.000000,512.000000) scale(0.100000,-0.100000)"
fill="#000000" stroke="none">
<path d="M442 5100 c-106 -28 -187 -75 -268 -155 -51 -51 -81 -92 -107 -145
-71 -144 -66 26 -66 -2214 -1 -2011 -1 -2030 19 -2071 51 -105 204 -115 270
-17 l25 36 3 1758 c1 967 6 1758 10 1759 33 4 4463 1 4467 -3 3 -2 5 -312 5
-687 1 -753 -3 -715 64 -766 71 -54 168 -40 222 31 l29 37 3 961 c3 1071 5
1038 -65 1178 -46 90 -153 201 -240 246 -34 18 -95 41 -135 52 -71 18 -138 19
-2118 19 -1983 0 -2047 -1 -2118 -19z m4182 -316 c28 -10 65 -35 94 -63 65
-64 84 -125 80 -252 l-3 -94 -2238 -1 -2238 0 2 105 c2 118 14 164 60 222 31
39 65 62 124 86 23 9 524 12 2051 12 1825 1 2026 -1 2068 -15z"/>
<path d="M849 3613 c-42 -18 -67 -40 -87 -78 -13 -26 -15 -99 -15 -546 -1
-567 -1 -564 61 -607 80 -56 170 -43 229 35 l28 36 2 511 c0 284 -3 527 -8
547 -10 39 -76 108 -107 111 -58 5 -73 4 -103 -9z"/>
<path d="M1655 3610 c-123 -39 -204 -117 -247 -238 -18 -52 -20 -84 -22 -362
-2 -381 7 -431 91 -529 48 -57 108 -96 177 -116 65 -19 297 -26 381 -12 146
25 263 136 299 282 19 80 17 668 -3 730 -34 105 -135 207 -240 241 -77 25
-361 28 -436 4z m358 -325 c8 -14 12 -104 13 -298 1 -244 -1 -281 -16 -299
-14 -18 -28 -20 -143 -21 -105 0 -131 3 -144 16 -14 14 -16 53 -16 301 0 252
1 288 16 304 14 16 33 18 147 17 121 0 132 -2 143 -20z"/>
<path d="M3064 3615 c-118 -27 -228 -124 -269 -237 -16 -45 -20 -83 -21 -253
-2 -110 2 -216 7 -236 11 -42 77 -108 112 -111 12 -1 31 -2 42 -3 26 -2 84 21
108 43 44 39 49 67 51 261 1 121 5 193 13 206 10 18 23 20 137 21 164 3 166 1
169 -116 3 -98 21 -140 78 -178 28 -20 44 -23 90 -20 111 8 153 67 152 218 -1
156 -45 258 -147 339 -75 60 -133 74 -311 76 -95 1 -181 -3 -211 -10z"/>
<path d="M4175 3621 c-39 -12 -83 -44 -101 -75 -17 -28 -19 -56 -20 -331 -1
-164 3 -313 7 -330 5 -17 23 -45 41 -62 61 -58 143 -64 206 -17 63 49 65 57
66 383 1 304 -3 341 -41 383 -37 41 -111 64 -158 49z"/>
<path d="M3425 2540 c-159 -32 -328 -108 -453 -205 -8 -5 -49 -44 -91 -85
-218 -212 -328 -487 -317 -794 3 -67 7 -130 9 -142 36 -154 66 -238 127 -346
188 -332 543 -539 920 -539 212 1 425 62 583 169 26 17 51 32 55 32 4 0 142
-135 307 -301 165 -165 309 -305 319 -311 29 -16 96 -20 132 -8 74 25 121 124
95 202 -8 23 -104 126 -316 338 -168 168 -305 308 -305 312 0 4 13 26 29 50
78 117 142 279 157 396 2 20 7 50 10 67 4 16 6 68 6 114 -3 301 -106 546 -316
757 -149 148 -298 233 -501 284 -122 31 -323 35 -450 10z m410 -330 c327 -104
536 -385 536 -716 -1 -191 -72 -372 -200 -510 -317 -340 -877 -305 -1146 71
-102 143 -139 259 -139 435 -1 146 15 215 74 335 102 205 282 346 515 400 82
20 277 11 360 -15z"/>
<path d="M1004 1901 c-107 -36 -194 -121 -234 -228 -21 -55 -22 -74 -22 -373
-1 -173 2 -333 5 -355 13 -75 67 -165 131 -217 93 -75 128 -83 351 -83 184 0
192 1 246 26 104 49 177 132 209 239 14 47 16 101 15 380 -1 179 -5 335 -8
346 -26 100 -108 199 -205 246 l-67 33 -185 2 c-153 1 -194 -1 -236 -16z m362
-315 c18 -14 19 -29 20 -300 1 -230 -2 -290 -13 -306 -13 -18 -25 -20 -143
-20 -138 0 -159 7 -161 53 -1 27 -1 527 0 544 1 6 8 19 17 27 21 22 250 23
280 2z"/>
<path d="M2129 1693 c-42 -18 -67 -40 -86 -78 -14 -25 -16 -87 -15 -415 0
-212 0 -402 1 -422 1 -30 10 -47 44 -82 49 -52 96 -65 159 -47 44 14 65 30 94
76 18 27 19 55 21 430 1 220 -3 416 -8 436 -10 39 -76 108 -107 111 -58 5 -73
4 -103 -9z"/>
</g>
</svg>
